:SAMPLES-PER-SECOND 30
:FULLY-SPECIFIED
:DEGREES
1230
root  -49.769 38.7044 -2.23228 43.4854 84.4542 48.7696
RightUpLeg  -21.0122 -4.29797 -4.76756
RightLeg  14.7409 0.971661 0.0557325
RightFoot  -3.78798 -0.451639 6.95883
RightToes  9.54606e-009 0 -3.6325e-017
Spine  8.47627 -1.94257 -6.79026
Spine1  5.95696 -3.51479 4.1457
HEad  -13.1155 2.82928 -2.85587
LeftShoulder1  -0.49097 4.81233 -31.3768
LeftArm  19.1098 -11.9729 -47.9642
LeftForeArm  12.2328 -23.9946 -4.4905
LeftHand  -0.0179747 7.05558 1.30437
RightShoulder  -1.01993 -6.34617 29.3369
RightArm  18.0659 -9.35727 43.0609
RightForeArm  16.723 10.9896 7.27115
RightHand  -0.28566 5.60128 -3.33345
LeftUpLeg  14.7288 6.98752 -5.03569
LeftLeg  14.1915 1.10663 0.175805
LeftFoot  -21.4193 0.396902 3.03314
LeftToes  -8.26734e-010 9.74065e-011 1.64617e-011
1231
root  -48.633 38.6972 -2.02008 39.9724 85.9147 44.8221
RightUpLeg  -20.9901 -4.78589 -2.89057
RightLeg  16.6951 0.43016 -0.0622375
RightFoot  1.57356 -0.0889908 0.816387
RightToes  9.54606e-009 0 -3.6325e-017
Spine  8.13999 -2.20387 -4.77294
Spine1  6.26342 -3.87494 5.0847
HEad  -13.3613 2.36711 -3.18752
LeftShoulder1  -0.503186 4.83961 -31.5257
LeftArm  21.5651 -9.99943 -48.0497
LeftForeArm  12.0353 -23.6951 -4.44166
LeftHand  -0.0114365 7.17325 1.64888
RightShoulder  -1.04822 -6.41021 29.5283
RightArm  16.9113 -9.12368 42.7947
RightForeArm  17.9409 10.4971 7.12148
RightHand  -0.194227 5.70336 -2.35984
LeftUpLeg  16.291 6.39591 -3.3399
LeftLeg  13.9572 0.110151 0.410155
LeftFoot  -21.5915 0.262992 1.50047
LeftToes  -8.26734e-010 9.74065e-011 1.64617e-011
1232
root  -47.4049 38.6133 -1.788 26.6193 86.7894 31.2544
RightUpLeg  -20.9727 -4.47813 -1.37659
RightLeg  19.3668 0.898284 0.132882
RightFoot  5.11022 0.217514 -1.34121
RightToes  9.54606e-009 0 -3.6325e-017
Spine  8.1215 -2.32508 -1.98221
Spine1  5.92078 -3.73299 4.73098
HEad  -13.718 1.47348 -3.94778
LeftShoulder1  -0.518384 4.85844 -32.1228
LeftArm  24.0455 -7.39764 -47.5078
LeftForeArm  11.3568 -23.1337 -4.46226
LeftHand  0.00102373 7.40937 2.20771
RightShoulder  -1.05339 -6.40035 29.824
RightArm  16.0033 -8.23255 42.7
RightForeArm  19.2629 9.41789 7.18424
RightHand  -0.159523 5.29425 -2.00791
LeftUpLeg  17.1204 5.26675 -1.76021
LeftLeg  16.0089 -0.0380845 0.545724
LeftFoot  -21.8204 0.0364142 -1.02936
LeftToes  -8.26734e-010 9.74065e-011 1.64617e-011
1233
root  -46.1532 38.5277 -1.53858 3.06399 86.1143 7.62555
RightUpLeg  -21.0338 -3.16291 0.120895
RightLeg  23.2487 0.558146 0.0500527
RightFoot  2.64662 0.331449 -2.55137
RightToes  9.54606e-009 0 -3.6325e-017
Spine  7.8967 -1.991 0.902291
Spine1  6.11873 -2.93466 3.93249
HEad  -13.7675 1.15527 -4.08954
LeftShoulder1  -0.542958 4.90579 -32.58
LeftArm  24.6739 -4.26267 -46.907
LeftForeArm  11.9742 -22.0671 -4.72992
LeftHand  0.00254858 7.45423 2.25526
RightShoulder  -1.08143 -6.46094 30.0319
RightArm  14.5786 -6.12187 43.2596
RightForeArm  22.4518 7.09747 7.19569
RightHand  0.012051 4.8415 -0.171347
LeftUpLeg  17.131 4.66367 -0.304097
LeftLeg  20.0964 -0.116342 0.258626
LeftFoot  -21.0519 -0.279422 -4.7669
LeftToes  -8.26734e-010 9.74065e-011 1.64617e-011
1234
root  -45.0568 38.4631 -1.27657 -10.939 86.2198 -6.79944
RightUpLeg  -20.8975 -3.58155 1.41285
RightLeg  25.9213 0.62998 0.0987072
RightFoot  0.0679565 0.325346 -3.24391
RightToes  9.54606e-009 0 -3.6325e-017
Spine  7.93279 -2.13981 3.14624
Spine1  5.81459 -2.6703 4.04004
HEad  -13.0922 1.57878 -3.79233
LeftShoulder1  -0.547451 4.89827 -33.1034
LeftArm  23.1127 -0.969612 -45.9956
LeftForeArm  14.2348 -20.1312 -5.7404
LeftHand  -0.00901461 7.59376 1.59553
RightShoulder  -1.02068 -6.30603 29.8663
RightArm  14.2181 -4.35664 44.2544
RightForeArm  22.3912 5.37816 7.25264
RightHand  -0.0426672 4.79169 -0.782115
LeftUpLeg  14.3869 3.77636 1.36262
LeftLeg  27.7206 -1.67062 -0.64833
LeftFoot  -18.5587 -0.484844 -9.77401
LeftToes  -8.26734e-010 9.74065e-011 1.64617e-011
1235
root  -44.0235 38.4586 -0.983042 -31.089 86.892 -27.2048
RightUpLeg  -19.9779 -3.73355 2.67541
RightLeg  27.4045 -0.22684 -0.366226
RightFoot  -2.31131 0.27102 -3.62352
RightToes  9.54606e-009 0 -3.6325e-017
Spine  8.0637 -2.47337 5.53606
Spine1  5.6593 -2.4344 3.61145
HEad  -12.6737 0.566422 -3.27348
LeftShoulder1  -0.498156 4.7898 -32.5945
LeftArm  18.35 1.85096 -45.5965
LeftForeArm  19.7219 -17.0724 -7.62235
LeftHand  -0.0201124 7.84786 0.979574
RightShoulder  -1.11923 -6.53459 30.4033
RightArm  14.1479 -2.50797 44.9836
RightForeArm  22.8899 5.23524 7.29286
RightHand  -0.0320153 4.12241 -0.646047
LeftUpLeg  9.91081 2.8422 3.57415
LeftLeg  37.3466 -3.13856 -2.18426
LeftFoot  -11.9449 -0.0211213 -13.4504
LeftToes  -8.26734e-010 9.74065e-011 1.64617e-011
1236
root  -42.9989 38.5062 -0.693294 -47.8609 86.8702 -44.3801
RightUpLeg  -18.8759 -3.70321 3.72222
RightLeg  28.1169 -0.932004 -0.785283
RightFoot  -4.39194 0.202199 -3.8097
RightToes  9.54606e-009 0 -3.6325e-017
Spine  7.76919 -2.15682 7.44164
Spine1  5.60236 -1.71791 3.14173
HEad  -12.9119 -1.23788 -3.41679
LeftShoulder1  -0.460552 4.69306 -32.5871
LeftArm  11.8354 3.6883 -44.9397
LeftForeArm  27.1395 -13.465 -9.45589
LeftHand  -0.0434785 7.75542 -0.0335635
RightShoulder  -1.1108 -6.52122 30.2838
RightArm  14.3871 -1.14451 45.5275
RightForeArm  20.0162 6.47204 7.40903
RightHand  -0.114947 5.94403 -1.51242
LeftUpLeg  4.11028 1.84542 4.91048
LeftLeg  47.1414 -2.76115 -2.73671
LeftFoot  -0.950135 1.00378 -11.3867
LeftToes  -8.26734e-010 9.74065e-011 1.64617e-011
1237
root  -42.0675 38.5379 -0.457447 -69.3807 86.9563 -65.7423
RightUpLeg  -17.1612 -4.28658 4.49772
RightLeg  28.5371 -1.38369 -1.06528
RightFoot  -6.35417 0.125781 -3.87745
RightToes  9.54606e-009 0 -3.6325e-017
Spine  8.23422 -2.12111 9.29684
Spine1  5.47907 -1.19462 2.68183
HEad  -12.2765 -1.81447 -2.39944
LeftShoulder1  -0.470841 4.71136 -32.8391
LeftArm  6.70385 5.35382 -43.8816
LeftForeArm  32.5615 -11.025 -10.1046
LeftHand  -0.0884823 8.52788 -1.41625
RightShoulder  -1.08115 -6.45027 30.153
RightArm  16.4124 0.621223 45.8947
RightForeArm  17.2518 8.74972 7.78327
RightHand  -0.147467 5.44934 -1.90499
LeftUpLeg  -1.19703 0.475812 5.79493
LeftLeg  55.2238 -1.7876 -2.2876
LeftFoot  6.34371 1.25329 -8.14465
LeftToes  -8.26734e-010 9.74065e-011 1.64617e-011
1238
root  -41.1164 38.686 -0.216423 -73.2896 87.1568 -69.2171
RightUpLeg  -14.7697 -4.86199 4.57461
RightLeg  28.1249 -1.36178 -1.03925
RightFoot  -7.82701 0.0714375 -4.04449
RightToes  9.54606e-009 0 -3.6325e-017
Spine  8.70998 -1.83708 10.0128
Spine1  5.62278 -0.558155 2.07412
HEad  -12.5832 -2.60585 -2.24229
LeftShoulder1  -0.536466 4.87119 -33.0863
LeftArm  3.88436 7.11188 -42.6026
LeftForeArm  34.3509 -10.0484 -9.98608
LeftHand  -0.169599 9.42841 -3.26483
RightShoulder  -1.01512 -6.30816 29.6533
RightArm  20.2837 3.10796 46.7655
RightForeArm  14.8568 11.3847 7.93032
RightHand  -0.201574 4.63743 -2.6136
LeftUpLeg  -5.29791 -0.185992 5.95808
LeftLeg  60.5317 -1.3061 -1.95365
LeftFoot  3.7068 1.01909 -7.87706
LeftToes  -8.26734e-010 9.74065e-011 1.64617e-011
1239
root  -40.1308 38.8689 -0.00435838 -61.0198 87.6637 -56.8591
RightUpLeg  -12.5086 -4.69729 4.00272
RightLeg  27.3088 -1.23765 -0.948654
RightFoot  -9.16736 0.0147278 -4.02974
RightToes  9.54606e-009 0 -3.6325e-017
Spine  8.53804 -1.27459 10.526
Spine1  5.86425 0.364306 0.765872
HEad  -13.0764 -4.81247 -3.47205
LeftShoulder1  -0.539726 4.88055 -33.0523
LeftArm  1.32126 8.89991 -41.388
LeftForeArm  35.5651 -9.12094 -9.77879
LeftHand  -0.202783 9.06457 -4.53947
RightShoulder  -0.993314 -6.28306 29.183
RightArm  23.612 5.66365 47.6949
RightForeArm  11.8911 13.7424 7.50616
RightHand  -0.267094 5.335 -3.20571
LeftUpLeg  -9.23603 -0.193354 5.30568
LeftLeg  62.7761 -1.19106 -1.91692
LeftFoot  3.00543 0.782828 -6.36029
LeftToes  -8.26734e-010 9.74065e-011 1.64617e-011
1240
root  -39.1313 39.0456 0.192718 -40.08 87.7199 -36.0059
RightUpLeg  -10.2614 -4.91832 3.44357
RightLeg  26.167 -0.389988 -0.497646
RightFoot  -10.4019 -0.0375821 -3.99741
RightToes  9.54606e-009 0 -3.6325e-017
Spine  8.14016 -0.744916 11.0977
Spine1  6.02293 1.2108 -0.651808
HEad  -12.9625 -5.50713 -4.17558
LeftShoulder1  -0.56076 4.93611 -33.003
LeftArm  0.907301 10.9067 -39.954
LeftForeArm  33.822 -9.54881 -9.4602
LeftHand  -0.123458 9.04811 -2.25242
RightShoulder  -0.921948 -6.1125 28.7733
RightArm  25.2391 7.88935 48.5971
RightForeArm  10.0303 15.6777 6.75624
RightHand  -0.262021 6.15634 -2.94533
LeftUpLeg  -12.8139 -0.256158 4.44051
LeftLeg  62.4363 -1.20739 -1.91788
LeftFoot  1.96718 0.580029 -5.07753
LeftToes  -8.26734e-010 9.74065e-011 1.64617e-011
1241
root  -38.134 39.2112 0.374969 -15.6582 87.6691 -11.7168
RightUpLeg  -8.02137 -6.06813 2.48294
RightLeg  24.9263 1.00974 0.168196
RightFoot  -11.5559 -0.086136 -4.18886
RightToes  9.54606e-009 0 -3.6325e-017
Spine  7.80205 -0.193685 11.3518
Spine1  5.9286 1.99614 -2.06352
HEad  -12.7457 -5.88518 -4.31657
LeftShoulder1  -0.549962 4.92408 -32.5754
LeftArm  1.59335 12.8147 -39.0295
LeftForeArm  31.3572 -10.3996 -9.22354
LeftHand  -0.10993 9.1741 -1.75296
RightShoulder  -0.945268 -6.20205 28.4676
RightArm  26.5819 9.84072 49.2368
RightForeArm  7.91848 17.7833 5.89041
RightHand  -0.1775 5.458 -2.2029
LeftUpLeg  -15.7816 -0.290651 3.31989
LeftLeg  59.5813 -1.59305 -2.38599
LeftFoot  0.231768 0.476343 -4.70807
LeftToes  -8.26734e-010 9.74065e-011 1.64617e-011
